<?xml version="1.0" encoding="UTF-8"?>
<svg version="1.1" xmlns="http://www.w3.org/2000/svg" width="512" height="512">
<path d="M0 0 C1.65 0 3.3 0 5 0 C21.96372523 27.84753124 20.29804711 63.99564075 16 95 C16.72703125 93.99582031 17.4540625 92.99164063 18.203125 91.95703125 C34.46648354 69.73053234 53.12281073 51.91841607 78.125 39.875 C78.9308252 39.48425293 79.73665039 39.09350586 80.56689453 38.69091797 C87.75902206 35.35642747 87.75902206 35.35642747 92 36 C93 37 93 37 93.296875 39.51171875 C92.90153073 44.15701395 91.26922247 47.64960571 89.25 51.8125 C88.85022949 52.64273682 88.45045898 53.47297363 88.03857422 54.32836914 C81.14168843 68.16815502 71.76056386 79.98399249 61 91 C59.82050781 92.27230469 59.82050781 92.27230469 58.6171875 93.5703125 C52.68193153 99.81898132 46.13187848 104.79028995 39.125 109.75 C36.07125198 111.82163095 36.07125198 111.82163095 34 114 C35.03511719 113.7834375 36.07023437 113.566875 37.13671875 113.34375 C67.26109991 107.56167957 101.47160973 109.43354892 129 124 C129 125.65 129 127.3 129 129 C123.21940293 132.33769118 117.30984966 134.71676194 110.9375 136.625 C110.3091626 136.81860107 109.6808252 137.01220215 109.03344727 137.21166992 C95.3293822 141.15594568 81.75589333 142.52015505 67.5625 142.375 C66.42667984 142.37101196 66.42667984 142.37101196 65.26791382 142.36694336 C53.96055483 142.32041777 43.03194314 141.67441046 32 139 C32.64324219 139.37769531 33.28648437 139.75539062 33.94921875 140.14453125 C58.82157161 155.29502294 82.1499238 180.18019019 92 208 C92.63415991 210.76440128 92.89435927 213.14770029 93 216 C92.67 216.33 92.34 216.66 92 217 C85.93915667 216.64231089 81.51574898 215.19885364 76.1875 212.375 C75.14601807 211.83649414 75.14601807 211.83649414 74.08349609 211.28710938 C60.19199704 203.99913347 48.46355871 194.64612328 37 184 C36.39542969 183.44957031 35.79085938 182.89914063 35.16796875 182.33203125 C28.04559022 175.57661368 22.03187814 167.38646357 17 159 C16.67 221.37 16.34 283.74 16 348 C21.445 349.485 21.445 349.485 27 351 C41.97710469 357.47158845 52.2176689 367.83278426 60 382 C60.23332031 382.6909375 60.46664063 383.381875 60.70703125 384.09375 C62.7805342 387.15075738 66.04819916 387.96754413 69.375 389.25 C76.90952448 392.36517941 83.4673123 396.06999835 90 401 C90.5269043 401.39670898 91.05380859 401.79341797 91.59667969 402.20214844 C109.37004029 415.7985056 124.39998423 436.83628763 129 459 C129.2357662 462.01981382 129.41634506 464.99374373 129 468 C126.43959684 470.56040316 124.76856766 470.24199963 121.27793264 470.26587117 C120.46875088 470.26118883 119.65956912 470.2565065 118.8258667 470.25168228 C117.96646437 470.25458916 117.10706204 470.25749604 116.22161722 470.26049101 C113.31011045 470.26785377 110.39881031 470.26081865 107.48730469 470.25396729 C105.39160427 470.25626924 103.29590466 470.25944397 101.20020676 470.26342177 C95.41656546 470.27181487 89.63298968 470.26762414 83.84934807 470.26144934 C77.62160663 470.2569442 71.39387685 470.26389892 65.1661377 470.26940918 C53.66282905 470.27780962 42.15954981 470.2770519 30.6562413 470.27158624 C20.03071297 470.26656222 9.40519236 470.26523841 -1.22033691 470.26763153 C-1.92417335 470.2677843 -2.62800978 470.26793707 -3.3531746 470.26809447 C-6.21001872 470.26871711 -9.06686285 470.26935391 -11.92370696 470.270014 C-38.74270183 470.27613693 -65.56168329 470.27057727 -92.38067609 470.2598202 C-116.22644749 470.25032845 -140.07219754 470.25117768 -163.91796875 470.26074219 C-190.68678999 470.27144314 -217.45559938 470.27570276 -244.22442245 470.26951766 C-247.07616933 470.26887619 -249.92791621 470.26825051 -252.77966309 470.26763153 C-253.48187568 470.26747338 -254.18408828 470.26731522 -254.90758005 470.26715227 C-265.52843714 470.26487389 -276.14928569 470.26754427 -286.7701416 470.27259064 C-298.8421975 470.2782978 -310.91422265 470.27671041 -322.98627758 470.26602915 C-329.15146506 470.26075493 -335.31660906 470.2587453 -341.48179626 470.26532745 C-347.11700622 470.27125301 -352.7521321 470.26806842 -358.38733435 470.25737235 C-360.43440209 470.25512381 -362.48147682 470.25630677 -364.52854013 470.26112393 C-367.29441907 470.26713722 -370.06000359 470.26103766 -372.8258667 470.25168228 C-373.63504846 470.25636461 -374.44423022 470.26104695 -375.27793264 470.26587117 C-380.77169926 470.22830074 -380.77169926 470.22830074 -383 468 C-383.69097865 462.16266994 -382.09052072 458.48018251 -379 453.6875 C-378.59136719 453.03305908 -378.18273437 452.37861816 -377.76171875 451.7043457 C-374.22472419 446.13809633 -370.31504882 440.98796092 -366 436 C-365.34902344 435.20464844 -364.69804687 434.40929687 -364.02734375 433.58984375 C-349.72476334 416.72081901 -329.85795486 404.95265162 -309 398 C-308.0950745 395.69709988 -307.36640792 393.493992 -306.6875 391.125 C-302.08055907 376.31169644 -294.13391041 363.65044702 -281 355 C-277.7 353.35 -274.4 351.7 -271 350 C-271 302.81 -271 255.62 -271 207 C-273.97 210.96 -276.94 214.92 -280 219 C-282.94910331 222.41925021 -285.89875316 225.72895865 -289 229 C-289.89332031 229.95777344 -290.78664063 230.91554687 -291.70703125 231.90234375 C-304.93036921 245.79797861 -323.25430411 259.88753749 -342 265 C-344.83984375 264.62109375 -344.83984375 264.62109375 -347 264 C-347 242.59404241 -326.48062561 220.90992756 -312.51806641 206.50683594 C-304.82414674 198.86983494 -296.34802673 192.48892151 -287 187 C-287.92558716 187.13631836 -287.92558716 187.13631836 -288.86987305 187.27539062 C-321.61876934 191.99660661 -352.49685232 190.8116372 -383 177 C-383 175.02 -383 173.04 -383 171 C-369.66272968 165.39610491 -356.42176369 160.88714539 -342 159 C-340.75089844 158.83177734 -340.75089844 158.83177734 -339.4765625 158.66015625 C-321.81701798 156.67685356 -304.51592662 158.58016347 -287 161 C-287.69053467 160.59612061 -288.38106934 160.19224121 -289.0925293 159.77612305 C-295.14354466 156.19049123 -300.45344267 152.10941491 -305.75 147.5 C-306.36302979 146.96673096 -306.97605957 146.43346191 -307.60766602 145.8840332 C-314.08507713 140.16149196 -320.12522077 134.2033856 -325.4375 127.375 C-325.90704102 126.77236328 -326.37658203 126.16972656 -326.86035156 125.54882812 C-335.65631486 114.07270423 -346.74227894 98.94782149 -347 84 C-343.05260263 82.90439761 -341.02025309 83.04106639 -337.33984375 84.80859375 C-336.03442627 85.4284314 -336.03442627 85.4284314 -334.70263672 86.06079102 C-333.7901416 86.51510498 -332.87764648 86.96941895 -331.9375 87.4375 C-330.99664551 87.89761475 -330.05579102 88.35772949 -329.08642578 88.83178711 C-321.96551879 92.37751024 -315.35959726 96.19688075 -309 101 C-308.14148438 101.63808594 -307.28296875 102.27617188 -306.3984375 102.93359375 C-292.69817075 113.62303491 -277.87376035 127.2524793 -270 143 C-270.13277344 142.06542969 -270.26554687 141.13085938 -270.40234375 140.16796875 C-274.38203411 111.07000608 -273.70235184 82.71204584 -263 55 C-262.64095581 54.04323364 -262.64095581 54.04323364 -262.2746582 53.06713867 C-261.59479233 51.34505964 -260.80386215 49.66780678 -260 48 C-257.3125 47.0625 -257.3125 47.0625 -255 47 C-251.63161769 51.60515335 -249.67674933 56.02061465 -247.9375 61.4375 C-247.68073486 62.22374756 -247.42396973 63.00999512 -247.15942383 63.82006836 C-238.91381186 89.79806655 -239.15937068 117.37653875 -244 144 C-243.48953125 143.22398437 -242.9790625 142.44796875 -242.453125 141.6484375 C-226.42365886 117.83160661 -200.35954718 89.71400498 -171 83 C-168.734375 83.4140625 -168.734375 83.4140625 -167 84 C-165.43036165 88.74520727 -166.81474075 91.97960805 -168.8125 96.3125 C-169.28574707 97.35821167 -169.28574707 97.35821167 -169.76855469 98.42504883 C-175.94362292 111.64568603 -184.08090844 123.33720898 -194 134 C-194.56348145 134.60730957 -195.12696289 135.21461914 -195.70751953 135.84033203 C-204.53392507 145.24252918 -214.3232705 155.16163525 -226 161 C-225.34217529 160.90912109 -224.68435059 160.81824219 -224.0065918 160.72460938 C-195.12987086 156.80707875 -156.6726693 153.60751464 -131 171 C-130 173.75 -130 173.75 -130 176 C-134.23768012 179.42375742 -138.62537255 180.820826 -143.75 182.5 C-144.68432861 182.80824707 -145.61865723 183.11649414 -146.58129883 183.43408203 C-172.85454982 191.8621552 -199.00588189 190.97563197 -226 187 C-224.80117188 187.78310547 -224.80117188 187.78310547 -223.578125 188.58203125 C-215.91506703 193.68054111 -209.05091821 199.21015754 -202.44091797 205.61035156 C-201.03956055 206.96184706 -199.61573688 208.2899253 -198.19140625 209.6171875 C-184.16046458 223.03116578 -172.08642009 240.4631831 -166 259 C-166.3125 262 -166.3125 262 -167 264 C-170.0152521 265.34266951 -171.23653362 264.92061727 -174.43359375 263.84765625 C-175.77492252 263.26784956 -177.10929102 262.6717615 -178.4375 262.0625 C-179.14616211 261.7432959 -179.85482422 261.4240918 -180.58496094 261.09521484 C-206.07248803 249.32338481 -226.56237584 230.15643624 -242 207 C-242 252.54 -242 298.08 -242 345 C-238.04 345.66 -234.08 346.32 -230 347 C-221.29473463 349.47793801 -214.06382892 353.39122035 -207 359 C-206.3296875 359.52980469 -205.659375 360.05960937 -204.96875 360.60546875 C-201.53771098 363.43316828 -198.552696 366.32411777 -196 370 C-196 370.66 -196 371.32 -196 372 C-195.24976563 371.60167969 -194.49953125 371.20335937 -193.7265625 370.79296875 C-176.90390814 362.08502046 -160.04997173 359.48149213 -141.65625 365.00390625 C-134.23563862 367.63059462 -128.18066555 371.16393993 -122 376 C-120.453125 377.11375 -120.453125 377.11375 -118.875 378.25 C-116 381 -116 381 -114.88330078 383.65063477 C-113.13932954 387.26263904 -111.49447566 389.98856417 -108 392 C-99.58860238 393.96461215 -90.55674578 393.02515959 -82 392.6875 C-79.5795376 392.63229079 -77.15895503 392.58210635 -74.73828125 392.53710938 C-68.82288991 392.41621664 -62.91200116 392.23248312 -57 392 C-56.67676758 391.19973389 -56.35353516 390.39946777 -56.02050781 389.57495117 C-48.60110904 371.44307356 -37.97773819 358.30773253 -19.5625 350.5625 C-16.29540229 349.27611392 -14.64398403 349 -11 349 C-11.495 255.445 -11.495 255.445 -12 160 C-14.97 163.96 -17.94 167.92 -21 172 C-23.95128714 175.41506083 -26.90228133 178.72790644 -30 182 C-30.81984375 182.88429687 -31.6396875 183.76859375 -32.484375 184.6796875 C-44.77184432 197.51245871 -66.08075359 215.66792443 -84.5 217.3125 C-87 217 -87 217 -88 216 C-87.60056635 210.32804223 -85.90415806 205.8950466 -83.4375 200.8125 C-83.08107422 200.0692749 -82.72464844 199.3260498 -82.35742188 198.56030273 C-70.05647022 173.50711232 -49.99275354 154.17464036 -27 139 C-27.89332031 139.2165625 -28.78664063 139.433125 -29.70703125 139.65625 C-40.62948955 142.00483624 -51.438339 142.33594138 -62.5625 142.375 C-63.29514069 142.38249268 -64.02778137 142.38998535 -64.78262329 142.39770508 C-78.83016062 142.51529869 -92.46779836 140.77523632 -105.9375 136.625 C-106.63351318 136.41657471 -107.32952637 136.20814941 -108.04663086 135.9934082 C-113.67025719 134.24472105 -118.89306143 131.94872374 -124 129 C-124 127.35 -124 125.7 -124 124 C-94.06389497 108.80564863 -59.47042434 108.03821717 -27 114 C-27.64324219 113.62230469 -28.28648437 113.24460937 -28.94921875 112.85546875 C-53.52024088 97.8885266 -72.08318266 75.76116928 -84.5 50 C-84.85078613 49.28166992 -85.20157227 48.56333984 -85.56298828 47.82324219 C-87.29451305 44.11570101 -88.57118485 41.18868894 -88 37 C-87.67 36.67 -87.34 36.34 -87 36 C-80.93915667 36.35768911 -76.51574898 37.80114636 -71.1875 40.625 C-70.49317871 40.98400391 -69.79885742 41.34300781 -69.08349609 41.71289062 C-55.19740003 48.99803193 -43.44871197 58.34476311 -32 69 C-30.98292969 69.93585938 -30.98292969 69.93585938 -29.9453125 70.890625 C-24.80269187 75.80606158 -20.55292625 81.27333222 -16.296875 86.94921875 C-14.24507368 89.67448547 -12.14521084 92.3480077 -10 95 C-10.32484375 93.44732422 -10.32484375 93.44732422 -10.65625 91.86328125 C-16.43832043 61.73890009 -14.56645108 27.52839027 0 0 Z M14 97 C15 99 15 99 15 99 Z M-269 144 C-268 146 -268 146 -268 146 Z " fill="#FBCC7F" transform="translate(383,21)"/>
<path d="M0 0 C1.65 0 3.3 0 5 0 C21.96372523 27.84753124 20.29804711 63.99564075 16 95 C16.72703125 93.99582031 17.4540625 92.99164063 18.203125 91.95703125 C34.46648354 69.73053234 53.12281073 51.91841607 78.125 39.875 C78.9308252 39.48425293 79.73665039 39.09350586 80.56689453 38.69091797 C87.75902206 35.35642747 87.75902206 35.35642747 92 36 C93 37 93 37 93.296875 39.51171875 C92.90153073 44.15701395 91.26922247 47.64960571 89.25 51.8125 C88.85022949 52.64273682 88.45045898 53.47297363 88.03857422 54.32836914 C81.14168843 68.16815502 71.76056386 79.98399249 61 91 C60.21367187 91.84820312 59.42734375 92.69640625 58.6171875 93.5703125 C52.68193153 99.81898132 46.13187848 104.79028995 39.125 109.75 C36.07125198 111.82163095 36.07125198 111.82163095 34 114 C35.03511719 113.7834375 36.07023438 113.566875 37.13671875 113.34375 C67.26109991 107.56167957 101.47160973 109.43354892 129 124 C129 125.65 129 127.3 129 129 C123.21940293 132.33769118 117.30984966 134.71676194 110.9375 136.625 C110.3091626 136.81860107 109.6808252 137.01220215 109.03344727 137.21166992 C95.3293822 141.15594568 81.75589333 142.52015505 67.5625 142.375 C66.42667984 142.37101196 66.42667984 142.37101196 65.26791382 142.36694336 C53.96055483 142.32041777 43.03194314 141.67441046 32 139 C32.64324219 139.37769531 33.28648437 139.75539062 33.94921875 140.14453125 C58.82157161 155.29502294 82.1499238 180.18019019 92 208 C92.63415991 210.76440128 92.89435927 213.14770029 93 216 C92.67 216.33 92.34 216.66 92 217 C85.93915667 216.64231089 81.51574898 215.19885364 76.1875 212.375 C75.49317871 212.01599609 74.79885742 211.65699219 74.08349609 211.28710938 C60.19199704 203.99913347 48.46355871 194.64612328 37 184 C36.39542969 183.44957031 35.79085937 182.89914063 35.16796875 182.33203125 C28.04559022 175.57661368 22.03187814 167.38646357 17 159 C16.505 252.555 16.505 252.555 16 348 C21.445 349.485 21.445 349.485 27 351 C41.97710469 357.47158845 52.2176689 367.83278426 60 382 C60.23332031 382.6909375 60.46664062 383.381875 60.70703125 384.09375 C62.7805342 387.15075738 66.04819916 387.96754413 69.375 389.25 C76.90952448 392.36517941 83.4673123 396.06999835 90 401 C90.5269043 401.39670898 91.05380859 401.79341797 91.59667969 402.20214844 C109.37004029 415.7985056 124.39998423 436.83628763 129 459 C129.2357662 462.01981382 129.41634506 464.99374373 129 468 C127 470 127 470 124.31759453 470.24609566 C122.59476344 470.24333028 122.59476344 470.24333028 120.83712769 470.24050903 C119.52177032 470.24325836 118.20641296 470.24600769 116.85119629 470.24884033 C115.38500886 470.24176153 113.91882235 470.2344919 112.45263672 470.22705078 C110.91541552 470.2264869 109.37819378 470.22680277 107.8409729 470.22793579 C103.65935965 470.22851121 99.47786039 470.21672633 95.29627371 470.20278788 C90.92938402 470.19031202 86.56249192 470.18911251 82.19558716 470.18673706 C73.92245851 470.18051302 65.64938252 470.16408974 57.37627709 470.14403808 C47.95924677 470.12170778 38.54221398 470.11069288 29.12516379 470.10064721 C9.75007931 470.07972429 -9.62495612 470.0445304 -29 470 C-29.39541992 469.18740723 -29.79083984 468.37481445 -30.19824219 467.53759766 C-30.72579102 466.46558105 -31.25333984 465.39356445 -31.796875 464.2890625 C-32.31604492 463.22896973 -32.83521484 462.16887695 -33.37011719 461.07666016 C-39.71170386 449.10591791 -50.07413451 439.24204875 -62 433 C-56.17412735 416.34164541 -39.74531975 404.74668128 -26 395 C-36.23 394.67 -46.46 394.34 -57 394 C-52.0288734 377.42957798 -43.76426335 364.55695055 -29 355 C-23.31727166 351.98915653 -17.50128365 349 -11 349 C-11.33 286.63 -11.66 224.26 -12 160 C-14.97 163.96 -17.94 167.92 -21 172 C-23.95128714 175.41506083 -26.90228133 178.72790644 -30 182 C-30.81984375 182.88429687 -31.6396875 183.76859375 -32.484375 184.6796875 C-44.77184432 197.51245871 -66.08075359 215.66792443 -84.5 217.3125 C-87 217 -87 217 -88 216 C-87.60056635 210.32804223 -85.90415806 205.8950466 -83.4375 200.8125 C-83.08107422 200.0692749 -82.72464844 199.3260498 -82.35742188 198.56030273 C-70.05647022 173.50711232 -49.99275354 154.17464036 -27 139 C-27.89332031 139.2165625 -28.78664063 139.433125 -29.70703125 139.65625 C-40.62948955 142.00483624 -51.438339 142.33594138 -62.5625 142.375 C-63.29514069 142.38249268 -64.02778137 142.38998535 -64.78262329 142.39770508 C-78.83016062 142.51529869 -92.46779836 140.77523632 -105.9375 136.625 C-106.63351318 136.41657471 -107.32952637 136.20814941 -108.04663086 135.9934082 C-113.67025719 134.24472105 -118.89306143 131.94872374 -124 129 C-124 127.35 -124 125.7 -124 124 C-94.06389497 108.80564863 -59.47042434 108.03821717 -27 114 C-27.64324219 113.62230469 -28.28648437 113.24460937 -28.94921875 112.85546875 C-53.52024088 97.8885266 -72.08318266 75.76116928 -84.5 50 C-84.85078613 49.28166992 -85.20157227 48.56333984 -85.56298828 47.82324219 C-87.29451305 44.11570101 -88.57118485 41.18868894 -88 37 C-87.67 36.67 -87.34 36.34 -87 36 C-80.93915667 36.35768911 -76.51574898 37.80114636 -71.1875 40.625 C-70.49317871 40.98400391 -69.79885742 41.34300781 -69.08349609 41.71289062 C-55.19740003 48.99803193 -43.44871197 58.34476311 -32 69 C-30.98292969 69.93585938 -30.98292969 69.93585938 -29.9453125 70.890625 C-24.80269187 75.80606158 -20.55292625 81.27333222 -16.296875 86.94921875 C-14.24507368 89.67448547 -12.14521084 92.3480077 -10 95 C-10.2165625 93.96488281 -10.433125 92.92976563 -10.65625 91.86328125 C-16.43832043 61.73890009 -14.56645108 27.52839027 0 0 Z M14 97 C15 99 15 99 15 99 Z " fill="#E5B363" transform="translate(383,21)"/>
<path d="M0 0 C2.96391565 1.12524391 3.67089766 3.30260578 4.92578125 6.07421875 C16.55512712 35.23246915 17.5794635 66.04927887 11.99609375 96.7578125 C12.76179688 95.59378906 12.76179688 95.59378906 13.54296875 94.40625 C29.57243489 70.58941911 55.63654657 42.47181748 84.99609375 35.7578125 C87.26171875 36.171875 87.26171875 36.171875 88.99609375 36.7578125 C90.5657321 41.50301977 89.181353 44.73742055 87.18359375 49.0703125 C86.8680957 49.76745361 86.55259766 50.46459473 86.22753906 51.18286133 C80.05247083 64.40349853 71.91518531 76.09502148 61.99609375 86.7578125 C61.4326123 87.36512207 60.86913086 87.97243164 60.28857422 88.59814453 C51.46216868 98.00034168 41.67282325 107.91944775 29.99609375 113.7578125 C30.65391846 113.66693359 31.31174316 113.57605469 31.98950195 113.48242188 C60.86622289 109.56489125 99.32342445 106.36532714 124.99609375 123.7578125 C125.99609375 126.5078125 125.99609375 126.5078125 125.99609375 128.7578125 C121.75841363 132.18156992 117.3707212 133.5786385 112.24609375 135.2578125 C111.31176514 135.56605957 110.37743652 135.87430664 109.41479492 136.19189453 C83.14154393 144.6199677 56.99021186 143.73344447 29.99609375 139.7578125 C31.19492187 140.54091797 31.19492187 140.54091797 32.41796875 141.33984375 C40.08102672 146.43835361 46.94517554 151.96797004 53.55517578 158.36816406 C54.9565332 159.71965956 56.38035687 161.0477378 57.8046875 162.375 C71.83562917 175.78897828 83.90967366 193.2209956 89.99609375 211.7578125 C89.68359375 214.7578125 89.68359375 214.7578125 88.99609375 216.7578125 C85.98084165 218.10048201 84.75956013 217.67842977 81.5625 216.60546875 C80.22117123 216.02566206 78.88680273 215.429574 77.55859375 214.8203125 C76.84993164 214.5011084 76.14126953 214.1819043 75.41113281 213.85302734 C38.46996906 196.79114844 13.64118186 165.97612585 -1.00390625 128.7578125 C-1.32101563 129.62019531 -1.638125 130.48257813 -1.96484375 131.37109375 C-16.11111329 168.37804749 -41.56142799 196.9882088 -77.37109375 214.39453125 C-85.93418698 218.21547138 -85.93418698 218.21547138 -91.00390625 216.7578125 C-91.00390625 195.35185491 -70.48453186 173.66774006 -56.52197266 159.26464844 C-48.82805299 151.62764744 -40.35193298 145.24673401 -31.00390625 139.7578125 C-31.92949341 139.89413086 -31.92949341 139.89413086 -32.8737793 140.03320312 C-65.62267559 144.75441911 -96.50075857 143.5694497 -127.00390625 129.7578125 C-127.00390625 127.7778125 -127.00390625 125.7978125 -127.00390625 123.7578125 C-113.66663593 118.15391741 -100.42566994 113.64495789 -86.00390625 111.7578125 C-84.75480469 111.58958984 -84.75480469 111.58958984 -83.48046875 111.41796875 C-65.82092423 109.43466606 -48.51983287 111.33797597 -31.00390625 113.7578125 C-31.69444092 113.35393311 -32.38497559 112.95005371 -33.09643555 112.53393555 C-39.14745091 108.94830373 -44.45734892 104.86722741 -49.75390625 100.2578125 C-50.36693604 99.72454346 -50.97996582 99.19127441 -51.61157227 98.6418457 C-58.08898338 92.91930446 -64.12912702 86.9611981 -69.44140625 80.1328125 C-69.91094727 79.53017578 -70.38048828 78.92753906 -70.86425781 78.30664062 C-79.66022111 66.83051673 -90.74618519 51.70563399 -91.00390625 36.7578125 C-87.05650888 35.66221011 -85.02415934 35.79887889 -81.34375 37.56640625 C-80.03833252 38.1862439 -80.03833252 38.1862439 -78.70654297 38.81860352 C-77.79404785 39.27291748 -76.88155273 39.72723145 -75.94140625 40.1953125 C-75.00055176 40.65542725 -74.05969727 41.11554199 -73.09033203 41.58959961 C-65.96942504 45.13532274 -59.36350351 48.95469325 -53.00390625 53.7578125 C-52.14539063 54.39589844 -51.286875 55.03398438 -50.40234375 55.69140625 C-36.702077 66.38084741 -21.8776666 80.0102918 -14.00390625 95.7578125 C-14.13667969 94.82324219 -14.26945312 93.88867188 -14.40625 92.92578125 C-18.70535537 61.49237908 -17.67532466 29.9863622 -4.00390625 0.7578125 C-2.00390625 -0.2421875 -2.00390625 -0.2421875 0 0 Z M-13.00390625 96.7578125 C-12.00390625 98.7578125 -12.00390625 98.7578125 -12.00390625 98.7578125 Z " fill="#02905D" transform="translate(127.00390625,68.2421875)"/>
<path d="M0 0 C1.65 0 3.3 0 5 0 C21.96372523 27.84753124 20.29804711 63.99564075 16 95 C16.72703125 93.99582031 17.4540625 92.99164063 18.203125 91.95703125 C34.46648354 69.73053234 53.12281073 51.91841607 78.125 39.875 C78.9308252 39.48425293 79.73665039 39.09350586 80.56689453 38.69091797 C87.75902206 35.35642747 87.75902206 35.35642747 92 36 C93 37 93 37 93.296875 39.51171875 C92.90153073 44.15701395 91.26922247 47.64960571 89.25 51.8125 C88.85022949 52.64273682 88.45045898 53.47297363 88.03857422 54.32836914 C81.14168843 68.16815502 71.76056386 79.98399249 61 91 C60.21367187 91.84820312 59.42734375 92.69640625 58.6171875 93.5703125 C52.68193153 99.81898132 46.13187848 104.79028995 39.125 109.75 C36.07125198 111.82163095 36.07125198 111.82163095 34 114 C35.03511719 113.7834375 36.07023438 113.566875 37.13671875 113.34375 C67.26109991 107.56167957 101.47160973 109.43354892 129 124 C129 125.65 129 127.3 129 129 C123.21940293 132.33769118 117.30984966 134.71676194 110.9375 136.625 C110.3091626 136.81860107 109.6808252 137.01220215 109.03344727 137.21166992 C95.3293822 141.15594568 81.75589333 142.52015505 67.5625 142.375 C66.42667984 142.37101196 66.42667984 142.37101196 65.26791382 142.36694336 C53.96055483 142.32041777 43.03194314 141.67441046 32 139 C32.64324219 139.37769531 33.28648437 139.75539062 33.94921875 140.14453125 C58.82157161 155.29502294 82.1499238 180.18019019 92 208 C92.63415991 210.76440128 92.89435927 213.14770029 93 216 C92.67 216.33 92.34 216.66 92 217 C85.93915667 216.64231089 81.51574898 215.19885364 76.1875 212.375 C75.49317871 212.01599609 74.79885742 211.65699219 74.08349609 211.28710938 C60.19199704 203.99913347 48.46355871 194.64612328 37 184 C36.39542969 183.44957031 35.79085937 182.89914063 35.16796875 182.33203125 C20.1940163 168.12957049 10.40789313 149.02318188 3 130 C2.61070312 130.87398437 2.22140625 131.74796875 1.8203125 132.6484375 C-15.00846489 169.88647392 -40.7626168 200.23735766 -79.1640625 216.421875 C-81.84931639 217.26744431 -84.22250801 217.3471865 -87 217 C-87.33 216.67 -87.66 216.34 -88 216 C-87.60056635 210.32804223 -85.90415806 205.8950466 -83.4375 200.8125 C-83.08107422 200.0692749 -82.72464844 199.3260498 -82.35742188 198.56030273 C-70.05647022 173.50711232 -49.99275354 154.17464036 -27 139 C-27.89332031 139.2165625 -28.78664063 139.433125 -29.70703125 139.65625 C-40.62948955 142.00483624 -51.438339 142.33594138 -62.5625 142.375 C-63.29514069 142.38249268 -64.02778137 142.38998535 -64.78262329 142.39770508 C-78.83016062 142.51529869 -92.46779836 140.77523632 -105.9375 136.625 C-106.63351318 136.41657471 -107.32952637 136.20814941 -108.04663086 135.9934082 C-113.67025719 134.24472105 -118.89306143 131.94872374 -124 129 C-124 127.35 -124 125.7 -124 124 C-94.06389497 108.80564863 -59.47042434 108.03821717 -27 114 C-27.64324219 113.62230469 -28.28648437 113.24460937 -28.94921875 112.85546875 C-53.52024088 97.8885266 -72.08318266 75.76116928 -84.5 50 C-84.85078613 49.28166992 -85.20157227 48.56333984 -85.56298828 47.82324219 C-87.29451305 44.11570101 -88.57118485 41.18868894 -88 37 C-87.67 36.67 -87.34 36.34 -87 36 C-80.93915667 36.35768911 -76.51574898 37.80114636 -71.1875 40.625 C-70.49317871 40.98400391 -69.79885742 41.34300781 -69.08349609 41.71289062 C-55.19740003 48.99803193 -43.44871197 58.34476311 -32 69 C-30.98292969 69.93585938 -30.98292969 69.93585938 -29.9453125 70.890625 C-24.80269187 75.80606158 -20.55292625 81.27333222 -16.296875 86.94921875 C-14.24507368 89.67448547 -12.14521084 92.3480077 -10 95 C-10.2165625 93.96488281 -10.433125 92.92976563 -10.65625 91.86328125 C-16.43832043 61.73890009 -14.56645108 27.52839027 0 0 Z M14 97 C15 99 15 99 15 99 Z " fill="#21B17E" transform="translate(383,21)"/>
<path d="M0 0 C2.96391565 1.12524391 3.67089766 3.30260578 4.92578125 6.07421875 C17.6431666 37.96050976 19.68002572 75.24120938 7.99609375 107.7578125 C7.53982227 109.337083 7.08413734 110.91652304 6.62890625 112.49609375 C4.39141742 119.53568248 2.37973589 125.8502712 -4.36328125 129.609375 C-8.40302068 131.46158113 -12.55167003 132.85419629 -16.81298828 134.10253906 C-19.53668715 134.91715994 -22.12687862 135.98789811 -24.75390625 137.0703125 C-57.41742835 148.55080394 -95.99476628 143.79855988 -127.00390625 129.7578125 C-127.00390625 127.7778125 -127.00390625 125.7978125 -127.00390625 123.7578125 C-113.66663593 118.15391741 -100.42566994 113.64495789 -86.00390625 111.7578125 C-84.75480469 111.58958984 -84.75480469 111.58958984 -83.48046875 111.41796875 C-65.82092423 109.43466606 -48.51983287 111.33797597 -31.00390625 113.7578125 C-31.69444092 113.35393311 -32.38497559 112.95005371 -33.09643555 112.53393555 C-39.14745091 108.94830373 -44.45734892 104.86722741 -49.75390625 100.2578125 C-50.36693604 99.72454346 -50.97996582 99.19127441 -51.61157227 98.6418457 C-58.08898338 92.91930446 -64.12912702 86.9611981 -69.44140625 80.1328125 C-69.91094727 79.53017578 -70.38048828 78.92753906 -70.86425781 78.30664062 C-79.66022111 66.83051673 -90.74618519 51.70563399 -91.00390625 36.7578125 C-87.05650888 35.66221011 -85.02415934 35.79887889 -81.34375 37.56640625 C-80.03833252 38.1862439 -80.03833252 38.1862439 -78.70654297 38.81860352 C-77.79404785 39.27291748 -76.88155273 39.72723145 -75.94140625 40.1953125 C-75.00055176 40.65542725 -74.05969727 41.11554199 -73.09033203 41.58959961 C-65.96942504 45.13532274 -59.36350351 48.95469325 -53.00390625 53.7578125 C-52.14539063 54.39589844 -51.286875 55.03398438 -50.40234375 55.69140625 C-36.702077 66.38084741 -21.8776666 80.0102918 -14.00390625 95.7578125 C-14.13667969 94.82324219 -14.26945312 93.88867188 -14.40625 92.92578125 C-18.70535537 61.49237908 -17.67532466 29.9863622 -4.00390625 0.7578125 C-2.00390625 -0.2421875 -2.00390625 -0.2421875 0 0 Z M-13.00390625 96.7578125 C-12.00390625 98.7578125 -12.00390625 98.7578125 -12.00390625 98.7578125 Z " fill="#21B17E" transform="translate(127.00390625,68.2421875)"/>
<path d="M0 0 C3.13534832 3.82205286 4.6571427 7.86776902 6.42578125 12.44140625 C7.80572629 15.85385303 7.80572629 15.85385303 9.44172764 18.10597897 C15.23161155 26.95290023 14.81921582 35.24410373 14.69702148 45.42602539 C14.696966 47.27393765 14.69954683 49.12185157 14.70454407 50.96975708 C14.71051586 55.96950246 14.67942119 60.96839708 14.64129519 65.9679749 C14.60725825 71.24110272 14.60690005 76.51423965 14.60255432 81.78746033 C14.59060384 90.66533922 14.55685736 99.54290725 14.50756836 108.4206543 C14.43875669 120.82046061 14.40887005 133.22012492 14.38716781 145.6200906 C14.36867391 155.36263207 14.33959504 165.10514762 14.30859375 174.84765625 C14.30542231 175.86896739 14.30225088 176.89027853 14.29898334 177.9425385 C14.21712164 203.31065613 13.91624208 228.64706946 13 254 C11.62822438 254.30048772 10.25644285 254.60094843 8.88465881 254.90139771 C8.12074861 255.06871965 7.3568384 255.2360416 6.5697794 255.40843391 C4.97439541 255.7575214 3.37874434 256.10538866 1.78295898 256.45263672 C1.06954346 256.61006348 0.35612793 256.76749023 -0.37890625 256.9296875 C-1.0963501 257.08679199 -1.81379395 257.24389648 -2.55297852 257.40576172 C-5.72959114 258.17717498 -8.85876501 259.09635058 -12 260 C-13.16968486 221.03004477 -13.39292699 182.06729068 -13.49662876 143.08183289 C-13.53006283 130.74416645 -13.59030087 118.40721859 -13.68413979 106.06986046 C-13.7485771 97.29609881 -13.78217487 88.52253379 -13.79337829 79.74854469 C-13.8008877 74.54421782 -13.82165327 69.34078104 -13.87640572 64.13671875 C-13.92712798 59.26365193 -13.93936561 54.39194138 -13.92315483 49.51865196 C-13.92375367 47.74459586 -13.93779198 45.97047887 -13.96710205 44.19666481 C-14.13721244 33.32676764 -12.82552346 25.6457996 -7.01048183 16.34660339 C-3.90898362 11.18391838 -1.99082666 5.67577024 0 0 Z " fill="#C57A44" transform="translate(385,149)"/>
<path d="M0 0 C1.01629801 -0.0012941 2.03259602 -0.0025882 3.07969093 -0.00392151 C20.50448942 -0.02175804 37.90258579 0.34259153 55.3125 1.0625 C52.58779569 3.25019555 49.85939858 5.42761509 47.078125 7.54296875 C35.0238043 16.78836667 25.85831855 26.52030702 17.3125 39.0625 C14.3522584 38.08159154 11.39686496 37.09200469 8.453125 36.0625 C-14.0298164 28.28461757 -34.50019371 29.43233833 -56.05957031 39.59985352 C-67.5169419 44.95986151 -80.44979251 46.33327759 -92.5 42.0625 C-99.94501385 38.79440514 -106.10904575 34.12896841 -112.25390625 28.86328125 C-125.24962266 17.76559794 -142.23742058 8.11655669 -159.1875 4.8125 C-160.3425 4.565 -161.4975 4.3175 -162.6875 4.0625 C-163.0175 3.0725 -163.3475 2.0825 -163.6875 1.0625 C-146.96651115 0.92966531 -130.2455054 0.79922332 -113.52447796 0.67134857 C-105.75402155 0.6118726 -97.98357178 0.55170777 -90.21313477 0.48974609 C-60.14233983 0.25035819 -30.07191013 0.01719112 0 0 Z " fill="#01CFFA" transform="translate(303.6875,413.9375)"/>
<path d="M0 0 C0.69391846 0.31606201 1.38783691 0.63212402 2.1027832 0.95776367 C3.5035721 1.60000029 4.90183525 2.24777792 6.29736328 2.90136719 C8.02151762 3.70588632 9.75797639 4.4839215 11.49609375 5.2578125 C23.60233845 10.88488507 33.61206529 19.70820933 43.25 28.8125 C44.37148438 29.85470703 44.37148438 29.85470703 45.515625 30.91796875 C58.96232354 43.82397836 76.53191842 65.42429721 77.25 84.8125 C76.92 85.1425 76.59 85.4725 76.25 85.8125 C70.18915667 85.45481089 65.76574898 84.01135364 60.4375 81.1875 C59.39601807 80.64899414 59.39601807 80.64899414 58.33349609 80.09960938 C44.44199704 72.81163347 32.71355871 63.45862328 21.25 52.8125 C20.64542969 52.26207031 20.04085937 51.71164063 19.41796875 51.14453125 C4.4440163 36.94207049 -5.34210687 17.83568188 -12.75 -1.1875 C-13.13929688 -0.31351563 -13.52859375 0.56046875 -13.9296875 1.4609375 C-30.75846489 38.69897392 -56.5126168 69.04985766 -94.9140625 85.234375 C-97.59931639 86.07994431 -99.97250801 86.1596865 -102.75 85.8125 C-103.08 85.4825 -103.41 85.1525 -103.75 84.8125 C-103.35056635 79.14054223 -101.65415806 74.7075466 -99.1875 69.625 C-98.83107422 68.8817749 -98.47464844 68.1385498 -98.10742188 67.37280273 C-82.61711436 35.82389214 -55.67850739 12.42992148 -23.75 -1.1875 C-23.07066406 -1.50074219 -22.39132812 -1.81398437 -21.69140625 -2.13671875 C-13.7699447 -5.54927821 -7.5257908 -3.50568719 0 0 Z " fill="#03915D" transform="translate(398.75,152.1875)"/>
<path d="M0 0 C21.51093738 -0.7827496 49.59300494 0.55863356 68.07275391 13.078125 C69.07275391 15.828125 69.07275391 15.828125 69.07275391 18.078125 C64.83507379 21.50188242 60.44738135 22.898951 55.32275391 24.578125 C53.92126099 25.04049561 53.92126099 25.04049561 52.49145508 25.51220703 C26.21820409 33.9402802 0.06687202 33.05375697 -26.92724609 29.078125 C-26.12802734 29.60019531 -25.32880859 30.12226563 -24.50537109 30.66015625 C-16.84231312 35.75866611 -9.9781643 41.28828254 -3.36816406 47.68847656 C-1.96680665 49.03997206 -0.54298297 50.3680503 0.88134766 51.6953125 C14.91228933 65.10929078 26.98633381 82.5413081 33.07275391 101.078125 C32.76025391 104.078125 32.76025391 104.078125 32.07275391 106.078125 C29.0575018 107.42079451 27.83622029 106.99874227 24.63916016 105.92578125 C23.29783138 105.34597456 21.96346289 104.7498865 20.63525391 104.140625 C19.9265918 103.8214209 19.21792969 103.5022168 18.48779297 103.17333984 C-12.72077152 88.75915539 -36.63051324 63.74723503 -51.42724609 33.078125 C-51.86109619 32.18158203 -52.29494629 31.28503906 -52.74194336 30.36132812 C-54.79814501 25.97410437 -56.62043699 21.98707062 -56.92724609 17.078125 C-55.33536277 13.89435836 -52.04477797 13.39449141 -48.86474609 12.203125 C-44.79498782 10.66321646 -40.87947169 9.08492167 -37.04443359 7.01953125 C-32.56190004 4.73155434 -28.04036029 3.78371279 -23.11474609 2.890625 C-21.78165405 2.63974121 -21.78165405 2.63974121 -20.42163086 2.38378906 C-13.59071031 1.13031733 -6.93936025 0.28130166 0 0 Z " fill="#03915D" transform="translate(183.92724609375,178.921875)"/>
<path d="M0 0 C2.6338276 3.9507414 4.32036162 8.22792382 6.16992188 12.58007812 C6.46060547 13.25619141 6.75128906 13.93230469 7.05078125 14.62890625 C7.33724707 15.30087791 7.62371288 15.97284958 7.91885948 16.66518402 C8.95656111 19.00694781 8.95656111 19.00694781 10.26358986 21.14408112 C14.35768708 28.24667548 14.69275339 34.29654073 14.58349609 42.37695312 C14.58583252 43.68310577 14.58816895 44.98925842 14.59057617 46.33499146 C14.59625613 49.9040859 14.57102953 53.47235415 14.53990126 57.04129219 C14.51199891 60.83751398 14.51233904 64.63374538 14.50918579 68.43005371 C14.49998431 74.84576229 14.47253949 81.26117289 14.43212891 87.67675781 C14.37636846 96.5335452 14.3529887 105.39017873 14.33671331 114.24711418 C14.26639906 149.84037568 13.87565336 185.41644238 13 221 C0.13 219.515 0.13 219.515 -13 218 C-13.23227135 193.58996684 -13.41034266 169.18020322 -13.51812172 144.76928425 C-13.56951337 133.43280034 -13.63947846 122.09701902 -13.75439453 110.76098633 C-13.85459958 100.87135898 -13.91870715 90.98224084 -13.94088495 81.09211987 C-13.95383339 75.86329008 -13.9838906 70.63591598 -14.05730057 65.40755653 C-14.61131243 24.38566623 -14.61131243 24.38566623 -4.16932297 8.84363365 C-2.3880749 6.03519752 -1.21961105 3.08809001 0 0 Z " fill="#D78954" transform="translate(126,196)"/>
<path d="M0 0 C0 14.19 0 28.38 0 43 C3.96 43 7.92 43 12 43 C14.6726531 43.28133191 17.34383087 43.5913586 20 44 C19.67 44.66 19.34 45.32 19 46 C17.08222338 46.5114071 15.16016236 47.0101424 13.22338867 47.4440918 C-9.44490395 52.53891978 -28.31153059 64.09758168 -45 80 C-45.5878125 80.51304687 -46.175625 81.02609375 -46.78125 81.5546875 C-54.57372428 88.64877965 -67.23758634 103.83842426 -68.23828125 114.55078125 C-68.16931093 117.25685221 -68.16931093 117.25685221 -66 120 C-72.37203593 120.0505963 -78.7440203 120.08568957 -85.11621094 120.10986328 C-87.28517594 120.11993789 -89.45412731 120.13359798 -91.62304688 120.15087891 C-94.73571126 120.17506323 -97.84819651 120.18646832 -100.9609375 120.1953125 C-101.934935 120.20563507 -102.9089325 120.21595764 -103.91244507 120.22659302 C-104.81322784 120.22674408 -105.71401062 120.22689514 -106.64208984 120.22705078 C-107.83455826 120.23371262 -107.83455826 120.23371262 -109.05111694 120.24050903 C-111 120 -111 120 -113 118 C-113.69097865 112.16266994 -112.09052072 108.48018251 -109 103.6875 C-108.59136719 103.03305908 -108.18273437 102.37861816 -107.76171875 101.7043457 C-104.22472419 96.13809633 -100.31504882 90.98796092 -96 86 C-95.34902344 85.20464844 -94.69804688 84.40929687 -94.02734375 83.58984375 C-79.72476334 66.72081901 -59.85795486 54.95265162 -39 48 C-38.0950745 45.69709988 -37.36640792 43.493992 -36.6875 41.125 C-31.74326915 25.22716374 -22.89106246 11.7667372 -8.171875 3.390625 C-1.50491573 0 -1.50491573 0 0 0 Z " fill="#FAC56D" transform="translate(113,371)"/>
<path d="M0 0 C2.94155722 2.94155722 3.89748509 6.53086062 5.390625 10.37109375 C6.79943314 13.84389886 6.79943314 13.84389886 8.44516087 16.11284542 C14.23358926 24.95544765 13.81916317 33.24849039 13.69702148 43.42602539 C13.696966 45.27393765 13.69954683 47.12185157 13.70454407 48.96975708 C13.71051586 53.96950246 13.67942119 58.96839708 13.64129519 63.9679749 C13.60725825 69.24110272 13.60690005 74.51423965 13.60255432 79.78746033 C13.59060384 88.66533922 13.55685736 97.54290725 13.50756836 106.4206543 C13.43875669 118.82046061 13.40887005 131.22012492 13.38716781 143.6200906 C13.36867391 153.36263207 13.33959504 163.10514762 13.30859375 172.84765625 C13.30542231 173.86896739 13.30225088 174.89027853 13.29898334 175.9425385 C13.21711921 201.31141108 12.90102742 226.64604717 12 252 C6.06 252.99 6.06 252.99 0 254 C0 170.18 0 86.36 0 0 Z " fill="#D78A55" transform="translate(386,151)"/>
<path d="M0 0 C6.06084333 0.35768911 10.48425102 1.80114636 15.8125 4.625 C16.50682129 4.98400391 17.20114258 5.34300781 17.91650391 5.71289062 C31.80259997 12.99803193 43.55128803 22.34476311 55 33 C55.67804688 33.62390625 56.35609375 34.2478125 57.0546875 34.890625 C69.0261444 46.33322235 77.75281554 60.04326825 83.8125 75.375 C84.20630859 76.34566406 84.60011719 77.31632812 85.00585938 78.31640625 C88.09400951 85.9970541 88.09400951 85.9970541 89 90 C73.9993192 86.70295738 60.06186895 79.3905583 48 70 C47.071875 69.29230469 46.14375 68.58460937 45.1875 67.85546875 C26.63529462 53.22979547 12.7453627 35.25605263 2.5 14 C2.14921387 13.28166992 1.79842773 12.56333984 1.43701172 11.82324219 C-0.29451305 8.11570101 -1.57118485 5.18868894 -1 1 C-0.67 0.67 -0.34 0.34 0 0 Z " fill="#02915D" transform="translate(296,57)"/>
<path d="M0 0 C11.00461032 4.42503444 21.50071788 9.88942625 31 17 C31.86109375 17.639375 32.7221875 18.27875 33.609375 18.9375 C55.41585276 35.96977849 77.42795319 60.65330977 82 89 C61.12739432 87.04863787 41.905172 70.41214128 27 57 C26.32324219 56.39671875 25.64648438 55.7934375 24.94921875 55.171875 C11.93705846 42.87398604 -4.88815227 21.78449795 -6.9375 3.625 C-6.9684375 1.830625 -6.9684375 1.830625 -7 0 C-4.17984211 -1.41007894 -3.06070749 -0.84951908 0 0 Z " fill="#02915D" transform="translate(43,105)"/>
<path d="M0 0 C1 1 1 1 1.296875 3.51171875 C0.90153073 8.15701395 -0.73077753 11.64960571 -2.75 15.8125 C-3.14977051 16.64273682 -3.54954102 17.47297363 -3.96142578 18.32836914 C-10.85831157 32.16815502 -20.23943614 43.98399249 -31 55 C-31.78632813 55.84820312 -32.57265625 56.69640625 -33.3828125 57.5703125 C-47.18081772 72.09692525 -66.48426947 84.77578906 -86 90 C-86.99 89.67 -87.98 89.34 -89 89 C-86.62171483 83.42453293 -86.62171483 83.42453293 -85.61181641 81.09716797 C-84.17216148 77.77457222 -82.77344738 74.44686424 -81.46484375 71.0703125 C-69.64850171 41.28528753 -42.24162858 17.53904785 -13.875 3.875 C-13.0691748 3.48425293 -12.26334961 3.09350586 -11.43310547 2.69091797 C-4.24097794 -0.64357253 -4.24097794 -0.64357253 0 0 Z " fill="#02915D" transform="translate(475,57)"/>
<path d="M0 0 C21.51093738 -0.7827496 49.59300494 0.55863356 68.07275391 13.078125 C69.07275391 15.828125 69.07275391 15.828125 69.07275391 18.078125 C64.83507379 21.50188242 60.44738135 22.898951 55.32275391 24.578125 C53.92126099 25.04049561 53.92126099 25.04049561 52.49145508 25.51220703 C24.94700617 34.34806183 -9.78719094 36.43995616 -36.92724609 25.078125 C-38.13251953 24.57667969 -39.33779297 24.07523438 -40.57958984 23.55859375 C-42.99543278 22.54033823 -45.3976106 21.49955765 -47.79833984 20.4453125 C-50.49012931 19.26912484 -53.19313189 18.15132871 -55.92724609 17.078125 C-55.92724609 16.418125 -55.92724609 15.758125 -55.92724609 15.078125 C-54.93724609 14.69140625 -53.94724609 14.3046875 -52.92724609 13.90625 C-51.59383764 13.38039878 -50.26050857 12.85434624 -48.92724609 12.328125 C-48.27884766 12.07546875 -47.63044922 11.8228125 -46.96240234 11.5625 C-43.54100658 10.20749178 -40.28198643 8.75624414 -37.04052734 7.01171875 C-32.55967916 4.73030129 -28.03607682 3.78293614 -23.11474609 2.890625 C-21.78165405 2.63974121 -21.78165405 2.63974121 -20.42163086 2.38378906 C-13.59071031 1.13031733 -6.93936025 0.28130166 0 0 Z " fill="#21B27E" transform="translate(183.92724609375,178.921875)"/>
<path d="M0 0 C0.33 0 0.66 0 1 0 C1 71.61 1 143.22 1 217 C-3.29 217 -7.58 217 -12 217 C-12.23442129 192.59000521 -12.41034276 168.18018107 -12.51812172 143.76928425 C-12.56951337 132.43280034 -12.63947846 121.09701902 -12.75439453 109.76098633 C-12.85459958 99.87135898 -12.91870715 89.98224084 -12.94088495 80.09211987 C-12.95383339 74.86329008 -12.9838906 69.63591598 -13.05730057 64.40755653 C-13.61016579 23.48592706 -13.61016579 23.48592706 -3.08680344 7.76111412 C-1.5765652 5.31384373 -0.75759176 2.7606587 0 0 Z " fill="#C47A44" transform="translate(125,197)"/>
<path d="M0 0 C13.63347495 0.90032382 25.34213994 5.58292677 36 14 C36.97066406 14.72509766 36.97066406 14.72509766 37.9609375 15.46484375 C47.72728116 23.16276965 53.99296501 35.95779004 56 48 C37.19 48 18.38 48 -1 48 C-1.020625 40.265625 -1.04125 32.53125 -1.0625 24.5625 C-1.071604 22.11787354 -1.08070801 19.67324707 -1.09008789 17.15454102 C-1.09300691 15.22932999 -1.0955555 13.30411835 -1.09765625 11.37890625 C-1.10277222 10.36920776 -1.10788818 9.35950928 -1.11315918 8.31921387 C-1.11328003 7.3651062 -1.11340088 6.41099854 -1.11352539 5.42797852 C-1.115746 4.59524918 -1.11796661 3.76251984 -1.12025452 2.90455627 C-1 1 -1 1 0 0 Z " fill="#E8B564" transform="translate(140,366)"/>
<path d="M0 0 C32.01 0 64.02 0 97 0 C94.66232161 1.55845226 92.84093666 2.50086433 90.3125 3.5625 C83.96519818 6.71272913 78.88048658 12.33478605 76 18.8125 C73.82380288 25.77354079 74.43709757 33.96693908 76 41 C66.69328121 40.59536005 60.11048717 35.05225735 53.25 29.1875 C39.80357747 17.7024191 24.06788673 9.10852322 6.92578125 4.51953125 C4.53198743 3.87374103 2.27315403 2.98503341 0 2 C0 1.34 0 0.68 0 0 Z " fill="#02C0F9" transform="translate(140,415)"/>
<path d="M0 0 C0 13.2 0 26.4 0 40 C-14.625 46.75 -14.625 46.75 -21.48828125 46.3671875 C-22.20235641 46.33650177 -22.91643158 46.30581604 -23.65214539 46.27420044 C-25.87513536 46.17177878 -28.09223949 46.024555 -30.3125 45.875 C-31.84294687 45.79645729 -33.37355094 45.72091816 -34.90429688 45.6484375 C-38.60531593 45.46677701 -42.30256454 45.24493951 -46 45 C-41.34757019 28.54933045 -32.57452789 15.43413424 -18 6 C-12.31727166 2.98915653 -6.50128365 0 0 0 Z " fill="#FBC56D" transform="translate(372,370)"/>
<path d="M0 0 C0 14.19 0 28.38 0 43 C-5.0428125 43.4021875 -5.0428125 43.4021875 -10.1875 43.8125 C-17.87359847 44.46756521 -25.17489102 45.41765296 -32.63671875 47.4140625 C-35 48 -35 48 -38 48 C-35.12728292 31.28352249 -27.14337297 17.15174307 -13.640625 6.796875 C-3.65217391 0 -3.65217391 0 0 0 Z " fill="#E9B664" transform="translate(113,371)"/>
<path d="M0 0 C19.47604706 5.3116492 32.52135151 14.38344585 42.8359375 31.703125 C43.91096968 33.82432943 44.54174567 35.6767571 45 38 C39.75318047 37.44770321 35.0838423 36.45252637 30 35 C23.51285693 34.02258447 17.05024687 33.69996121 10.5 33.4375 C7.035 33.293125 3.57 33.14875 0 33 C0 22.11 0 11.22 0 0 Z " fill="#FBCD7E" transform="translate(399,369)"/>
<path d="M0 0 C-2.91523316 2.31723661 -5.8659652 4.01475015 -9.1875 5.6875 C-17.05201238 9.94962588 -22.75108273 14.58359624 -27 22.5 C-28.6925658 25.15452766 -29.81477141 26.73491027 -32.96044922 27.43847656 C-38.00670838 27.87348006 -42.97188214 27.5090333 -48 27 C-48.32613281 26.13117188 -48.65226563 25.26234375 -48.98828125 24.3671875 C-49.42527344 23.21476562 -49.86226562 22.06234375 -50.3125 20.875 C-50.74175781 19.73804688 -51.17101562 18.60109375 -51.61328125 17.4296875 C-52.93927857 13.97608755 -52.93927857 13.97608755 -54.73046875 10.7578125 C-56 8 -56 8 -55 5 C-39.1774086 -5.4844646 -17.4773366 -6.68003971 0 0 Z " fill="#FBC56D" transform="translate(244,387)"/>
<path d="M0 0 C0 8.58 0 17.16 0 26 C-10.85155301 32.02429403 -18.23681712 32.68840849 -30.3125 31.875 C-31.84294687 31.79645729 -33.37355094 31.72091816 -34.90429688 31.6484375 C-38.60531593 31.46677701 -42.30256454 31.24493951 -46 31 C-46 30.67 -46 30.34 -46 30 C-37.09 30 -28.18 30 -19 30 C-18.67 28.02 -18.34 26.04 -18 24 C-16.84101558 21.4358507 -15.6609707 19.01983069 -14.3125 16.5625 C-13.95454346 15.90161377 -13.59658691 15.24072754 -13.2277832 14.55981445 C-5.15100301 0 -5.15100301 0 0 0 Z " fill="#F8CC7F" transform="translate(372,384)"/>
<path d="M0 0 C0 3 0 3 -1.92773438 5.26831055 C-2.80751953 6.13238525 -3.68730469 6.99645996 -4.59375 7.88671875 C-5.05986694 8.34859085 -5.52598389 8.81046295 -6.00622559 9.28633118 C-7.4972629 10.76056952 -8.99838872 12.22404088 -10.5 13.6875 C-11.51240054 14.68485528 -12.52412811 15.68289417 -13.53515625 16.68164062 C-16.01567629 19.12907564 -18.50535089 21.56695887 -21 24 C-21 19.6782199 -18.39351052 17.78251059 -15.5625 14.8125 C-15.02206055 14.23604736 -14.48162109 13.65959473 -13.92480469 13.06567383 C-9.5267051 8.42820865 -4.9053275 4.10016011 0 0 Z " fill="#099A62" transform="translate(339,172)"/>
<path d="M0 0 C0.66 0.33 1.32 0.66 2 1 C-5.59 8.59 -13.18 16.18 -21 24 C-21 20.45705078 -20.52369695 20.11736033 -18.18359375 17.63671875 C-17.58353516 16.99669922 -16.98347656 16.35667969 -16.36523438 15.69726562 C-15.72908203 15.03404297 -15.09292969 14.37082031 -14.4375 13.6875 C-13.82841797 13.03587891 -13.21933594 12.38425781 -12.59179688 11.71289062 C-8.61352913 7.50729329 -4.45396742 3.69730886 0 0 Z " fill="#099C61" transform="translate(172,127)"/>
<path d="M0 0 C0.66 0.33 1.32 0.66 2 1 C-5.59 8.59 -13.18 16.18 -21 24 C-21 20.45705078 -20.52369695 20.11736033 -18.18359375 17.63671875 C-17.58353516 16.99669922 -16.98347656 16.35667969 -16.36523438 15.69726562 C-15.72908203 15.03404297 -15.09292969 14.37082031 -14.4375 13.6875 C-13.82841797 13.03587891 -13.21933594 12.38425781 -12.59179688 11.71289062 C-8.61352913 7.50729329 -4.45396742 3.69730886 0 0 Z " fill="#099B61" transform="translate(80,219)"/>
</svg>
